<mxfile host="app.diagrams.net" modified="2022-10-19T20:18:55.031Z" agent="5.0 (Windows)" etag="YX2jcF8-BedGdpTmX7nJ" version="20.4.2" type="github">
  <diagram id="kgpKYQtTHZ0yAKxKKP6v" name="Page-1">
    <mxGraphModel dx="981" dy="519" grid="1" gridSize="10" guides="1" tooltips="1" connect="1" arrows="1" fold="1" page="1" pageScale="1" pageWidth="850" pageHeight="1100" math="0" shadow="0">
      <root>
        <mxCell id="0" />
        <mxCell id="1" parent="0" />
        <mxCell id="dC2aLsNPClo29It74Rl8-4" style="edgeStyle=orthogonalEdgeStyle;rounded=0;orthogonalLoop=1;jettySize=auto;html=1;exitX=0.25;exitY=1;exitDx=0;exitDy=0;entryX=0.25;entryY=0;entryDx=0;entryDy=0;" edge="1" parent="1" source="dC2aLsNPClo29It74Rl8-1" target="dC2aLsNPClo29It74Rl8-2">
          <mxGeometry relative="1" as="geometry" />
        </mxCell>
        <mxCell id="dC2aLsNPClo29It74Rl8-1" value="&lt;font face=&quot;Garamond&quot;&gt;Create and Refine Interview Protocol, Questions&lt;br&gt;&lt;/font&gt;" style="rounded=1;whiteSpace=wrap;html=1;" vertex="1" parent="1">
          <mxGeometry x="130" y="60" width="120" height="60" as="geometry" />
        </mxCell>
        <mxCell id="dC2aLsNPClo29It74Rl8-5" style="edgeStyle=orthogonalEdgeStyle;rounded=0;orthogonalLoop=1;jettySize=auto;html=1;exitX=0.75;exitY=0;exitDx=0;exitDy=0;entryX=0.75;entryY=1;entryDx=0;entryDy=0;" edge="1" parent="1" source="dC2aLsNPClo29It74Rl8-2" target="dC2aLsNPClo29It74Rl8-1">
          <mxGeometry relative="1" as="geometry" />
        </mxCell>
        <mxCell id="dC2aLsNPClo29It74Rl8-11" style="edgeStyle=orthogonalEdgeStyle;rounded=0;orthogonalLoop=1;jettySize=auto;html=1;exitX=1;exitY=0.5;exitDx=0;exitDy=0;entryX=0;entryY=0.5;entryDx=0;entryDy=0;fontFamily=Garamond;" edge="1" parent="1" source="dC2aLsNPClo29It74Rl8-2" target="dC2aLsNPClo29It74Rl8-6">
          <mxGeometry relative="1" as="geometry" />
        </mxCell>
        <mxCell id="dC2aLsNPClo29It74Rl8-2" value="&lt;font face=&quot;Garamond&quot;&gt;Test Interview&lt;/font&gt;" style="rounded=1;whiteSpace=wrap;html=1;" vertex="1" parent="1">
          <mxGeometry x="130" y="180" width="120" height="60" as="geometry" />
        </mxCell>
        <mxCell id="dC2aLsNPClo29It74Rl8-14" style="edgeStyle=orthogonalEdgeStyle;rounded=0;orthogonalLoop=1;jettySize=auto;html=1;exitX=0.5;exitY=1;exitDx=0;exitDy=0;fontFamily=Garamond;" edge="1" parent="1" source="dC2aLsNPClo29It74Rl8-6" target="dC2aLsNPClo29It74Rl8-7">
          <mxGeometry relative="1" as="geometry" />
        </mxCell>
        <mxCell id="dC2aLsNPClo29It74Rl8-6" value="Participant Recruitment and Screening" style="rounded=1;whiteSpace=wrap;html=1;fontFamily=Garamond;" vertex="1" parent="1">
          <mxGeometry x="310" y="180" width="120" height="60" as="geometry" />
        </mxCell>
        <mxCell id="dC2aLsNPClo29It74Rl8-15" style="edgeStyle=orthogonalEdgeStyle;rounded=0;orthogonalLoop=1;jettySize=auto;html=1;exitX=1;exitY=0.5;exitDx=0;exitDy=0;entryX=0;entryY=0.5;entryDx=0;entryDy=0;fontFamily=Garamond;" edge="1" parent="1" source="dC2aLsNPClo29It74Rl8-7" target="dC2aLsNPClo29It74Rl8-8">
          <mxGeometry relative="1" as="geometry" />
        </mxCell>
        <mxCell id="dC2aLsNPClo29It74Rl8-7" value="Semi-Structured Interviews (n=10)" style="rounded=1;whiteSpace=wrap;html=1;fontFamily=Garamond;" vertex="1" parent="1">
          <mxGeometry x="130" y="280" width="120" height="60" as="geometry" />
        </mxCell>
        <mxCell id="dC2aLsNPClo29It74Rl8-16" style="edgeStyle=orthogonalEdgeStyle;rounded=0;orthogonalLoop=1;jettySize=auto;html=1;exitX=1;exitY=0.5;exitDx=0;exitDy=0;entryX=0;entryY=0.5;entryDx=0;entryDy=0;fontFamily=Garamond;" edge="1" parent="1" source="dC2aLsNPClo29It74Rl8-8" target="dC2aLsNPClo29It74Rl8-10">
          <mxGeometry relative="1" as="geometry" />
        </mxCell>
        <mxCell id="dC2aLsNPClo29It74Rl8-8" value="Interview Audio Recordings" style="rounded=1;whiteSpace=wrap;html=1;fontFamily=Garamond;" vertex="1" parent="1">
          <mxGeometry x="310" y="280" width="120" height="60" as="geometry" />
        </mxCell>
        <mxCell id="dC2aLsNPClo29It74Rl8-20" value="" style="edgeStyle=orthogonalEdgeStyle;rounded=0;orthogonalLoop=1;jettySize=auto;html=1;fontFamily=Garamond;" edge="1" parent="1" source="dC2aLsNPClo29It74Rl8-9" target="dC2aLsNPClo29It74Rl8-18">
          <mxGeometry relative="1" as="geometry" />
        </mxCell>
        <mxCell id="dC2aLsNPClo29It74Rl8-9" value="Relevant Quotes&lt;br&gt;(n=469)" style="rounded=1;whiteSpace=wrap;html=1;fontFamily=Garamond;" vertex="1" parent="1">
          <mxGeometry x="130" y="380" width="120" height="60" as="geometry" />
        </mxCell>
        <mxCell id="dC2aLsNPClo29It74Rl8-17" style="edgeStyle=orthogonalEdgeStyle;rounded=0;orthogonalLoop=1;jettySize=auto;html=1;exitX=0.5;exitY=1;exitDx=0;exitDy=0;entryX=0.5;entryY=0;entryDx=0;entryDy=0;fontFamily=Garamond;" edge="1" parent="1" source="dC2aLsNPClo29It74Rl8-10" target="dC2aLsNPClo29It74Rl8-9">
          <mxGeometry relative="1" as="geometry" />
        </mxCell>
        <mxCell id="dC2aLsNPClo29It74Rl8-10" value="Audio Transcriptions" style="rounded=1;whiteSpace=wrap;html=1;fontFamily=Garamond;" vertex="1" parent="1">
          <mxGeometry x="490" y="280" width="120" height="60" as="geometry" />
        </mxCell>
        <mxCell id="dC2aLsNPClo29It74Rl8-23" style="edgeStyle=orthogonalEdgeStyle;rounded=0;orthogonalLoop=1;jettySize=auto;html=1;exitX=1;exitY=0.5;exitDx=0;exitDy=0;entryX=0;entryY=0.5;entryDx=0;entryDy=0;fontFamily=Garamond;" edge="1" parent="1" source="dC2aLsNPClo29It74Rl8-18" target="dC2aLsNPClo29It74Rl8-22">
          <mxGeometry relative="1" as="geometry" />
        </mxCell>
        <mxCell id="dC2aLsNPClo29It74Rl8-18" value="Distilled Quotes" style="rounded=1;whiteSpace=wrap;html=1;fontFamily=Garamond;" vertex="1" parent="1">
          <mxGeometry x="310" y="380" width="120" height="60" as="geometry" />
        </mxCell>
        <mxCell id="dC2aLsNPClo29It74Rl8-27" style="edgeStyle=orthogonalEdgeStyle;rounded=0;orthogonalLoop=1;jettySize=auto;html=1;exitX=0.5;exitY=1;exitDx=0;exitDy=0;entryX=0.5;entryY=0;entryDx=0;entryDy=0;fontFamily=Garamond;" edge="1" parent="1" source="dC2aLsNPClo29It74Rl8-22" target="dC2aLsNPClo29It74Rl8-24">
          <mxGeometry relative="1" as="geometry" />
        </mxCell>
        <mxCell id="dC2aLsNPClo29It74Rl8-22" value="Sticky Notes" style="rounded=1;whiteSpace=wrap;html=1;fontFamily=Garamond;" vertex="1" parent="1">
          <mxGeometry x="490" y="380" width="120" height="60" as="geometry" />
        </mxCell>
        <mxCell id="dC2aLsNPClo29It74Rl8-28" style="edgeStyle=orthogonalEdgeStyle;rounded=0;orthogonalLoop=1;jettySize=auto;html=1;exitX=1;exitY=0.5;exitDx=0;exitDy=0;entryX=0;entryY=0.5;entryDx=0;entryDy=0;fontFamily=Garamond;" edge="1" parent="1" source="dC2aLsNPClo29It74Rl8-24" target="dC2aLsNPClo29It74Rl8-26">
          <mxGeometry relative="1" as="geometry" />
        </mxCell>
        <mxCell id="dC2aLsNPClo29It74Rl8-24" value="Affinity Diagramming (AD) Session" style="rounded=1;whiteSpace=wrap;html=1;fontFamily=Garamond;" vertex="1" parent="1">
          <mxGeometry x="130" y="480" width="120" height="60" as="geometry" />
        </mxCell>
        <mxCell id="dC2aLsNPClo29It74Rl8-25" value="Final Themes Identified from AD Groupings&lt;br&gt;(n=12)" style="rounded=1;whiteSpace=wrap;html=1;fontFamily=Garamond;" vertex="1" parent="1">
          <mxGeometry x="490" y="480" width="120" height="60" as="geometry" />
        </mxCell>
        <mxCell id="dC2aLsNPClo29It74Rl8-29" style="edgeStyle=orthogonalEdgeStyle;rounded=0;orthogonalLoop=1;jettySize=auto;html=1;exitX=1;exitY=0.5;exitDx=0;exitDy=0;entryX=0;entryY=0.5;entryDx=0;entryDy=0;fontFamily=Garamond;" edge="1" parent="1" source="dC2aLsNPClo29It74Rl8-26" target="dC2aLsNPClo29It74Rl8-25">
          <mxGeometry relative="1" as="geometry" />
        </mxCell>
        <mxCell id="dC2aLsNPClo29It74Rl8-26" value="Identified Groupings from AD Sessions&lt;br&gt;(n=44)" style="rounded=1;whiteSpace=wrap;html=1;fontFamily=Garamond;" vertex="1" parent="1">
          <mxGeometry x="310" y="480" width="120" height="60" as="geometry" />
        </mxCell>
      </root>
    </mxGraphModel>
  </diagram>
</mxfile>
